<svg xmlns="http://www.w3.org/2000/svg" viewBox="0 0 140.66 23.88" fill="white">
                                    <path d="M95.51,14.46l4.08-8.91,4.08,8.91Zm21,9.42L104.36,0H95L82.62,23.88h8.56l2-4.34H106l2,4.34ZM34.3,14.46l4.08-8.91,4.08,8.91ZM33.81,0,21.41,23.88H30l2-4.34H44.8l2,4.34h8.55L43.14,0ZM69.93,10.85H64.67V4.44h5.42C72.51,4.44,73,5.89,73,7.67s-.64,3.19-3.07,3.18m12,13-6-9a8.9,8.9,0,0,0,4.28-3.8A8.91,8.91,0,0,0,79.74,3c-1.19-2-3.48-3-8.09-3H56.5V23.88h8.11V15.55H68l5.21,8.33ZM8.29,4.43s3.85,0,5.56,0c2.42,0,2.91,1.46,2.91,3.24s-.64,3.18-3.06,3.18H8.3Zm0,11.08h8.89c2.56,0,3.8-.33,5.61-2.08C25.17,11,24.85,6,23.88,3.28,23.11,1,20.39,0,17.1,0H0V23.88H8.3ZM136.16,0h-26.3V5.19h9V23.88h8.38V5.19h8.95Z"></path>
                                    <path d="M138,8.24a4.22,4.22,0,0,1,1.42.95,4.35,4.35,0,0,1,.94,1.42,4.52,4.52,0,0,1-.94,4.92,4.35,4.35,0,0,1-1.42.94,4.45,4.45,0,0,1-1.76.34,4.54,4.54,0,0,1-1.77-.34,4.41,4.41,0,0,1-1.41-.94,4.25,4.25,0,0,1-.94-1.41,4.58,4.58,0,0,1,0-3.51A4.19,4.19,0,0,1,133,9.19a4.28,4.28,0,0,1,1.41-.95,4.54,4.54,0,0,1,1.77-.34,4.45,4.45,0,0,1,1.76.34m-3.27.59a3.57,3.57,0,0,0-1.19.82,3.68,3.68,0,0,0-.79,1.21,4.16,4.16,0,0,0,0,3,3.68,3.68,0,0,0,.79,1.21,3.57,3.57,0,0,0,1.19.82,3.79,3.79,0,0,0,4.2-.82,3.84,3.84,0,0,0,.79-1.21,4,4,0,0,0,0-3,3.84,3.84,0,0,0-.79-1.21,3.84,3.84,0,0,0-4.2-.82m-.11,6.11V9.78h2a1.85,1.85,0,0,1,1.28.37,1.37,1.37,0,0,1,.4,1.06,1.78,1.78,0,0,1-.1.59,1.26,1.26,0,0,1-.29.42,1.3,1.3,0,0,1-.41.28,2.07,2.07,0,0,1-.5.15l1.54,2.29h-.75l-1.45-2.29h-1.07v2.29Zm2-2.85a1.77,1.77,0,0,0,.5-.1.79.79,0,0,0,.35-.27.88.88,0,0,0,.13-.51.86.86,0,0,0-.1-.45.81.81,0,0,0-.28-.27,1.12,1.12,0,0,0-.39-.13,2.15,2.15,0,0,0-.45,0h-1.17v1.79h.84l.57,0"></path>
                                </svg>
